# xmcd CD database file
#
# Track frame offsets:
#	150
#	20503
#	44276
#
# Disc length: 941 seconds
#
# Revision: 0
# Processed by: cddbd v1.5.1PL2 Copyright (c) Steve Scherf et al.
# Submitted via: CDex 1.51
#
DISCID=1c03ab03
DTITLE=KinKi Kids - SNOW !  SNOW !  SNOW !
DYEAR=2005
DGENRE=J-POP
TTITLE0=SNOW !  SNOW !  SNOW !
TTITLE1=ミゾレ
TTITLE2=雪白の月
EXTD=YEAR: 2005
EXTT0=
EXTT1=
EXTT2=
PLAYORDER=
